<svg xmlns="http://www.w3.org/2000/svg" fill="rgba(255,255,255,.8)" xmlns:xlink="http://www.w3.org/1999/xlink" version="1.1" x="0px" y="0px" viewBox="0 0 480 600" style="enable-background:new 0 0 480 480;" xml:space="preserve"><g><path d="M194.453,96c-29.62,0-57.22,13.266-75.724,36.396l-2.168,2.711l-16.743,4.185C92.86,141.031,88,147.256,88,154.428   c0,2.41,0.569,4.823,1.647,6.978l8.087,16.175l-4.078,4.077C90.009,185.305,88,190.154,88,195.313v1.373   c0,3.337,0.852,6.538,2.433,9.375C97.175,197.217,107.635,192,118.851,192c8.525,0,16.503,2.976,22.781,8.179   c8.395-15.529,23.425-26.948,41.144-30.492l3.272-0.654C192.548,153.924,207.426,144,224.105,144   c6.399,0,12.808,1.513,18.533,4.374l5.362,2.682l6.489-3.244c4.986-2.493,10.569-3.812,16.144-3.812   c12.314,0,23.517,6.123,30.146,16.23c11.85,1.149,22.605,6.536,30.548,14.803l19.228-24.034l-11.764-23.528l-28.536-3.171   c-26.756-2.974-52.865-9.856-77.602-20.459C220.513,98.638,207.661,96,194.453,96z M136,176h-16v-16h16V176z M152,144h-16v-16h16   V144z M180.934,155.659l-16.496,10.997l-8.875-13.313l16.496-10.997c2.468-1.646,3.942-4.399,3.942-7.366   c0-2.364-0.921-4.588-2.593-6.261l-11.063-11.063l11.313-11.314l11.064,11.063c4.694,4.695,7.279,10.937,7.279,17.574   C192,143.309,187.863,151.039,180.934,155.659z"/><path d="M30.083,384.098c0-6.633,0.936-13.176,2.707-19.457c-5.032-3.67-9.521-7.483-13.445-11.425   C17.132,358.945,16,364.961,16,371.111c0,11.603,4.091,22.901,11.518,31.813c2.291,2.749,4.651,5.422,7.06,8.038l-2.339-9.356   C30.809,395.887,30.083,389.995,30.083,384.098z"/><path d="M74.383,386.941c-10.043-4.051-19.18-8.427-27.33-13.098c-0.631,3.361-0.97,6.791-0.97,10.255   c0,4.591,0.564,9.176,1.678,13.629l3.465,13.858l3.923-2.354C63.866,404.001,70.538,396.095,74.383,386.941z"/><path d="M78.083,368.725c0-9.356-2.744-18.417-7.934-26.203l-2.03-3.046c-6.643,5.088-11.978,11.588-15.743,18.893   c7.535,4.513,16.115,8.784,25.628,12.745C78.045,370.319,78.083,369.524,78.083,368.725z"/><path d="M363.782,141.675l54.047-23.163l5.202,5.204c2.762,2.762,6.435,4.283,10.342,4.283c8.065,0,14.627-6.562,14.627-14.627   c0-6.942-4.425-13.082-11.011-15.278l-11.685-3.894l-4.852-19.407C418.863,68.438,413.178,64,406.627,64   C398.562,64,392,70.562,392,78.627c0,3.907,1.521,7.581,4.284,10.343l9.219,9.223l-50.77,25.385L363.782,141.675z"/><path d="M404.933,393.088c-2.715,0.912-5.481,1.804-8.303,2.673c-1.587,0.489-3.208,0.951-4.817,1.422   c-0.296,4.188-0.95,8.35-1.969,12.424l-8.702,34.808l-22.44-13.464c-8.984-5.39-16.35-12.902-21.615-21.665   c-6.63,1.044-13.362,1.977-20.197,2.78c-3.153,9.911-8.639,18.996-16.204,26.562L288,451.313l-12.686-12.686   c-6.588-6.588-11.593-14.332-14.862-22.766C256.317,415.944,252.171,416,248,416s-8.317-0.056-12.452-0.138   c-3.27,8.434-8.274,16.178-14.862,22.766L208,451.313l-12.686-12.686c-7.566-7.566-13.051-16.651-16.204-26.562   c-7.439-0.875-14.75-1.908-21.945-3.068c-5.276,8.885-12.702,16.504-21.784,21.953l-22.44,13.464l-8.702-34.808   c-1.066-4.262-1.739-8.62-2.013-13.003c-0.949-0.284-1.916-0.554-2.856-0.843c-3.407-1.049-6.727-2.134-9.978-3.245   c-5.106,12.51-14.151,23.319-26.011,30.436l-10.069,6.041C91.74,461.733,140.675,480,192.075,480h111.85   c51.046,0,99.657-18.022,137.964-50.337l-11.186-6.712C419.024,415.944,410.079,405.354,404.933,393.088z"/><path d="M436.342,251.128c14.343-5.011,19.185-9.365,19.649-11.128c-0.685-2.559-11.353-11.136-49.148-18.938   C419.94,226.943,430.587,237.597,436.342,251.128z"/><path d="M148.5,225.933l-10.173-3.391l-1.813-3.625C133.147,212.183,126.379,208,118.851,208c-6.618,0-12.761,3.287-16.432,8.794   l-9.285,13.928l-2.604,0.868c-10.762,3.587-19.182,11.621-23.306,21.965c8.277,2.447,18.853,4.973,32.306,7.374   C139.531,268.068,192.259,272,248,272c4.71,0,9.395-0.03,14.056-0.086C258.292,267.675,256,262.101,256,256   c0-13.233,10.766-24,24-24s24,10.767,24,24c0,5.618-1.946,10.788-5.192,14.882c36.479-1.636,70.093-5.032,97.662-9.953   c9.504-1.696,17.558-3.455,24.399-5.204C414.039,241.446,399.503,232,383.208,232h-12.974l-1.823-5.471   C364.716,215.446,354.385,208,342.702,208h-12.948L328,200.985C324.322,186.274,311.163,176,296,176h-4.944l-2.444-4.889   C285.185,164.258,278.296,160,270.633,160c-3.104,0-6.212,0.733-8.988,2.122L248,168.944l-12.516-6.259   c-3.514-1.757-7.449-2.686-11.378-2.686c-10.969,0-20.669,6.992-24.138,17.398l-1.846,5.536l-12.208,2.441   c-14.195,2.839-26.018,12.578-31.742,25.598c12.687,4.405,22.967,13.414,28.984,25.448l-14.311,7.156   C164.641,235.171,157.416,228.904,148.5,225.933z M130.344,253.657L128,251.314c-2.138-2.138-4.979-3.314-8-3.314   s-5.863,1.177-8,3.314l-2.344,2.343l-11.313-11.314l2.343-2.343c5.159-5.159,12.018-8,19.313-8s14.154,2.841,19.313,8l2.343,2.343   L130.344,253.657z M316.687,232c5.159-5.159,12.018-8,19.313-8s14.154,2.841,19.313,8l2.343,2.343l-11.313,11.314L344,243.314   c-2.138-2.138-4.979-3.314-8-3.314s-5.863,1.177-8,3.314l-2.344,2.343l-11.313-11.314L316.687,232z M252.687,200   c5.159-5.159,12.018-8,19.313-8s14.154,2.841,19.313,8l2.343,2.343l-11.313,11.314L280,211.314c-2.138-2.138-4.979-3.314-8-3.314   s-5.863,1.177-8,3.314l-2.344,2.343l-11.313-11.314L252.687,200z M216,192c13.234,0,24,10.767,24,24s-10.766,24-24,24   s-24-10.767-24-24S202.766,192,216,192z"/><path d="M402.192,276.15C360.929,283.792,306.169,288,248,288s-112.929-4.208-154.192-11.85   c-20.439-3.785-36.603-8.243-48.042-13.252c-1.364-0.597-3.435-1.505-5.766-2.743V272c0.586,2.732,12.793,12.587,59.53,20.929   C139.531,300.068,192.259,304,248,304s108.469-3.932,148.47-11.071c46.737-8.342,58.943-18.196,59.535-20.991l-0.002-11.784   c-2.332,1.239-4.404,2.147-5.769,2.745C438.794,267.907,422.631,272.365,402.192,276.15z"/><circle cx="216" cy="216" r="8"/><path d="M40.01,240c0.371,1.409,3.542,4.474,12.119,8.206c3.318-8.621,8.74-16.123,15.688-21.936   C46.887,232.398,40.528,238.069,40.01,240z"/><circle cx="280" cy="256" r="8"/><path d="M123.226,419.585l3.923-2.354c4.979-2.988,9.277-6.86,12.779-11.326c-7.191-1.431-14.221-3.013-21.083-4.737   c0.25,1.53,0.54,3.054,0.916,4.559L123.226,419.585z"/><path d="M304,392c0-13.34-5.195-25.881-14.627-35.313L288,355.313l-1.373,1.373C277.195,366.119,272,378.66,272,392   c0,2.529,0.189,5.028,0.555,7.484c10.555-0.43,20.956-1.131,31.152-2.11C303.896,395.601,304,393.809,304,392z"/><path d="M425.964,339.476l-2.03,3.046c-5.19,7.786-7.934,16.847-7.934,26.203c0,1.062,0.039,2.119,0.111,3.171   c9.65-3.927,18.374-8.169,26.056-12.657C438.384,351.575,432.873,344.766,425.964,339.476z"/><path d="M366.934,417.23l3.923,2.354l3.465-13.858c0.336-1.343,0.605-2.701,0.84-4.065c-6.76,1.663-13.667,3.2-20.739,4.58   C357.877,410.564,362.081,414.319,366.934,417.23z"/><path d="M353.964,347.476l-2.03,3.046c-5.19,7.786-7.934,16.847-7.934,26.203c0,5.064,0.835,10.034,2.392,14.739   c10.028-1.842,19.772-3.96,29.149-6.377C373.658,370.298,365.904,356.619,353.964,347.476z"/><path d="M419.992,387.595c3.886,8.874,10.435,16.532,18.942,21.636l3.923,2.354l3.465-13.858c1.113-4.453,1.678-9.038,1.678-13.629   c0-3.129-0.276-6.231-0.792-9.279C439.056,379.373,429.969,383.645,419.992,387.595z"/><path d="M208,428.687l1.373-1.373c3.599-3.599,6.576-7.653,8.888-12.029c-7.154-0.346-14.234-0.821-21.234-1.415   c2.4,4.918,5.617,9.461,9.601,13.444L208,428.687z"/><path d="M470.058,336.686l-17.189-42.972c-1.026,0.479-1.927,0.875-2.635,1.185c-11.44,5.009-27.604,9.467-48.042,13.252   C360.929,315.792,306.169,320,248,320s-112.929-4.208-154.192-11.85c-20.439-3.785-36.603-8.243-48.042-13.252   c-0.708-0.31-1.609-0.706-2.635-1.185l-17.189,42.972c3.515,4.322,7.922,8.541,13.132,12.62   c4.885-8.884,11.622-16.764,19.887-22.963l13.088-9.815l11.413,17.12c6.948,10.423,10.621,22.553,10.621,35.078   c0,2.791-0.189,5.561-0.556,8.294c3.112,1.079,6.306,2.126,9.569,3.142c3.069-18.099,13.002-34.672,27.864-45.818l13.088-9.815   l11.413,17.12c6.948,10.423,10.621,22.553,10.621,35.078c0,5.848-0.833,11.603-2.398,17.117c4.093,0.625,8.239,1.19,12.414,1.722   c-0.063-1.183-0.1-2.37-0.1-3.564c0-17.613,6.859-34.173,19.314-46.628L208,332.687l12.686,12.686   C233.141,357.827,240,374.387,240,392c0,2.673-0.177,5.318-0.489,7.932C242.333,399.971,245.16,400,248,400   s5.667-0.029,8.489-0.068C256.177,397.318,256,394.673,256,392c0-17.613,6.859-34.173,19.314-46.628L288,332.687l12.686,12.686   C313.141,357.827,320,374.387,320,392c0,1.193-0.038,2.381-0.1,3.564c3.553-0.452,7.08-0.935,10.573-1.455   c-1.614-5.596-2.473-11.441-2.473-17.384c0-12.525,3.673-24.655,10.621-35.078l11.413-17.12l13.088,9.814   c15.015,11.262,24.998,28.061,27.956,46.377c0.279-0.085,0.566-0.163,0.844-0.249c2.973-0.916,5.878-1.861,8.727-2.829   c-0.424-2.935-0.648-5.912-0.648-8.915c0-12.525,3.673-24.655,10.621-35.078l11.413-17.12l13.088,9.814   c8.588,6.441,15.528,14.696,20.453,24.007C461.38,345.948,466.242,341.377,470.058,336.686z"/><path d="M224,392c0-13.34-5.195-25.881-14.627-35.313L208,355.313l-1.373,1.373C197.195,366.119,192,378.66,192,392   c0,1.809,0.104,3.601,0.292,5.374c10.197,0.979,20.597,1.68,31.152,2.11C223.811,397.028,224,394.529,224,392z"/><path d="M288,428.687l1.373-1.373c3.983-3.983,7.201-8.526,9.601-13.444c-7,0.594-14.08,1.069-21.234,1.415   c2.312,4.376,5.289,8.43,8.888,12.029L288,428.687z"/><path d="M150.083,376.725c0-9.356-2.744-18.417-7.934-26.203l-2.03-3.046c-11.807,9.042-19.514,22.522-21.506,37.121   c9.384,2.469,19.13,4.645,29.178,6.533C149.279,386.523,150.083,381.67,150.083,376.725z"/><path d="M476.655,353.215c-4.336,4.355-9.36,8.554-15.045,12.576c1.566,5.928,2.39,12.078,2.39,18.307   c0,5.897-0.725,11.789-2.155,17.51l-3.033,12.132c3.326-3.486,6.56-7.081,9.67-10.813c7.428-8.913,11.519-20.212,11.519-31.814   C480,364.961,478.868,358.945,476.655,353.215z"/><path d="M22.848,147.959c5.389,1.347,9.152,6.167,9.152,11.722c0,3.228-1.257,6.263-3.539,8.545L24,172.686   c-5.159,5.159-8,12.019-8,19.314s2.841,14.155,8,19.314l2.343,2.343l11.313-11.314L35.313,200c-2.137-2.137-3.313-4.978-3.313-8   s1.177-5.863,3.313-8l4.462-4.461C45.079,174.234,48,167.182,48,159.681c0-12.911-8.748-24.114-21.268-27.243l-1.58-0.396   C19.764,130.694,16,125.874,16,120.319c0-3.228,1.257-6.263,3.539-8.545l5.578-5.577C29.556,101.758,32,95.856,32,89.58   c0-8.959-4.978-17.013-12.991-21.02l-7.432-3.716L4.422,79.155l7.431,3.716C14.411,84.15,16,86.721,16,89.58   c0,2.003-0.78,3.887-2.197,5.303l-5.578,5.578C2.921,105.766,0,112.818,0,120.319c0,12.911,8.748,24.114,21.268,27.243   L22.848,147.959z"/><path d="M52.731,67.429C59.366,69.088,64,75.022,64,81.861c0,11.771,6.54,22.354,17.069,27.617l3.354,1.677l7.154-14.311   l-3.354-1.677C83.151,92.632,80,87.533,80,81.861c0-14.194-9.617-26.512-23.388-29.954c-7.056-1.765-12.968-6.507-16.22-13.012   l-1.237-2.474l-14.311,7.156l1.237,2.474C31.425,56.739,41.139,64.531,52.731,67.429z"/><path d="M64,19.314C66.137,17.177,68.979,16,72,16s5.863,1.177,8,3.314C88.181,27.495,99.058,32,110.627,32   c11.261,0,21.034,7.63,23.765,18.556l1.846,7.385l15.522-3.881l-1.846-7.385C145.4,28.614,129.244,16,110.627,16   c-7.296,0-14.155-2.841-19.314-8S79.295,0,72,0S57.846,2.841,52.687,8l-2.343,2.343l11.313,11.314L64,19.314z"/><path d="M181.197,48.89C184.209,57.928,192.634,64,202.161,64c5.902,0,11.452-2.299,15.625-6.472l3.613-3.613   c3.814-3.814,8.886-5.915,14.28-5.915c8.706,0,16.405,5.549,19.158,13.808l2.838,8.517l3.795,1.266   c12.652,4.217,22.723,14.288,26.94,26.94l15.179-5.061c-5.367-16.1-17.623-29.16-33.207-35.62l-0.367-1.102   C265.081,41.945,251.282,32,235.679,32c-9.668,0-18.757,3.765-25.593,10.601l-3.613,3.613C205.32,47.366,203.79,48,202.161,48   c-2.628,0-4.953-1.676-5.784-4.17c-3.764-11.289-11.697-20.436-22.338-25.755l-2.46-1.23l-7.156,14.311l2.461,1.23   C173.702,35.795,178.786,41.656,181.197,48.89z"/></g><text x="0" y="495" fill="#000000" font-size="5px" font-weight="bold" font-family="'Helvetica Neue', Helvetica, Arial-Unicode, Arial, Sans-serif">Created by Eucalyp</text><text x="0" y="500" fill="#000000" font-size="5px" font-weight="bold" font-family="'Helvetica Neue', Helvetica, Arial-Unicode, Arial, Sans-serif">from the Noun Project</text></svg>