<svg xmlns="http://www.w3.org/2000/svg" fill="rgba(255,255,255,.8)" viewBox="0 0 48 60" x="0px" y="0px"><title>-,</title><g><path d="M42,34a2.985,2.985,0,0,0-1-2.22V29.5A6.5,6.5,0,0,0,34.5,23H29.5a6.581,6.581,0,0,0-.916.072l.36-4.318A1.994,1.994,0,0,0,30,17V15a2,2,0,0,0-2-2H27V11a2,2,0,0,0-2-2H18.949V4H26a1,1,0,0,0,0-2H17.949a1,1,0,0,0-1,1V9H11a2,2,0,0,0-2,2v2H8a2,2,0,0,0-2,2v2a1.994,1.994,0,0,0,1.059,1.754L8.927,41.167A2.013,2.013,0,0,0,10.92,43H23.462a3.76,3.76,0,0,0,3.309,2H37.229A3.774,3.774,0,0,0,41,41.229V40.22A2.96,2.96,0,0,0,41.22,36,2.981,2.981,0,0,0,42,34Zm-2,4a1,1,0,0,1-1,1H36.762a3.073,3.073,0,0,0,.661-1.106l.3-.894H39A1,1,0,0,1,40,38ZM23,41H16.414l5.826-5.826a3.014,3.014,0,0,0,.54.826A2.96,2.96,0,0,0,23,40.22ZM11.592,41,23,29.592v1.994L13.586,41ZM9.087,19h8.677l-8.01,8.01Zm.885,10.621L20.592,19h1.994L10.125,31.461Zm.371,4.45L25.414,19h1.5l-.35,4.2L10.754,39.01ZM24,38a1,1,0,0,1,1-1h6.279l.3.894A3.073,3.073,0,0,0,32.238,39H25A1,1,0,0,1,24,38Zm13-3a1,1,0,0,0-.949.684l-.526,1.577a1.08,1.08,0,0,1-2.05,0l-.526-1.577A1,1,0,0,0,32,35H25a1,1,0,0,1,0-2H39a1,1,0,0,1,0,2ZM34.5,25A4.5,4.5,0,0,1,39,29.5V31H25V29.5a4.5,4.5,0,0,1,2.738-4.137l.085-.029A4.461,4.461,0,0,1,29.5,25ZM8,15h4.99a1,1,0,1,0,0-2H11V11H25v2H16.029a1,1,0,0,0,0,2H28v2H8ZM39,41.229A1.772,1.772,0,0,1,37.229,43H26.771A1.772,1.772,0,0,1,25,41.229V41H39Z"/><circle cx="32" cy="28" r="1"/><circle cx="36" cy="28" r="1"/><circle cx="28" cy="28" r="1"/></g><text x="0" y="63" fill="#000000" font-size="5px" font-weight="bold" font-family="'Helvetica Neue', Helvetica, Arial-Unicode, Arial, Sans-serif">Created by Capativ Design</text><text x="0" y="68" fill="#000000" font-size="5px" font-weight="bold" font-family="'Helvetica Neue', Helvetica, Arial-Unicode, Arial, Sans-serif">from the Noun Project</text></svg>